<svg data-v-fde0c5aa="" xmlns="http://www.w3.org/2000/svg" viewBox="0 0 300 300" class="iconLeftSlogan"><!----><defs data-v-fde0c5aa=""><!----></defs><rect data-v-fde0c5aa="" fill="transparent" x="0" y="0" width="300px" height="300px" class="logo-background-square"></rect><defs data-v-fde0c5aa=""><!----></defs><g data-v-fde0c5aa="" id="f4759130-18c3-499c-8c0a-cdacb0848318" fill="#000000" transform="matrix(1.6822985033604567,0,0,1.6822985033604567,145.25041907174506,125.09483503561526)"><path d="M10.42 4.65C10.56 4.62 10.63 4.52 10.63 4.38L10.63 3.79L7.24 3.79L7.24 4.38C7.24 4.52 7.29 4.61 7.41 4.63C7.52 4.66 7.80 4.72 8.25 4.80L8.25 8.26L2.84 8.26L2.84 4.80C3.32 4.72 3.60 4.66 3.70 4.63C3.79 4.61 3.84 4.52 3.84 4.38L3.84 3.79L0.46 3.79L0.46 4.38C0.46 4.52 0.52 4.61 0.63 4.63C0.74 4.66 1.02 4.72 1.47 4.80L1.47 12.80L0.67 12.95C0.53 12.98 0.46 13.08 0.46 13.22L0.46 13.82L3.84 13.82L3.84 13.22C3.84 13.08 3.50 12.94 2.83 12.80L2.83 9.25L8.23 9.25L8.23 12.80L7.45 12.95C7.31 12.98 7.22 13.08 7.22 13.22L7.22 13.82L10.61 13.82L10.61 13.22C10.61 13.08 10.56 12.99 10.44 12.96C10.33 12.94 10.05 12.88 9.60 12.80L9.60 4.80ZM19.39 3.79L18.91 3.79L11.35 3.79L11.35 6.01L12.03 6.01C12.19 6.01 12.28 5.96 12.31 5.87C12.33 5.77 12.38 5.46 12.43 4.93L14.80 4.93L14.80 12.80C14.43 12.87 14.18 12.92 14.03 12.95C13.87 12.98 13.79 13.09 13.79 13.23L13.79 13.82L17.18 13.82L17.18 13.23C17.18 13.09 17.14 13.01 17.04 12.98C16.94 12.95 16.70 12.91 16.34 12.84C16.23 12.81 16.17 12.81 16.17 12.81L16.17 4.94L18.52 4.94C18.58 5.47 18.63 5.77 18.66 5.87C18.69 5.96 18.76 6.01 18.93 6.01L19.61 6.01L19.61 3.79ZM29.22 13.03L28.66 12.87L25.03 3.79L23.66 3.79L20.02 12.87L19.46 13.03C19.35 13.06 19.28 13.13 19.28 13.26L19.28 13.82L22.15 13.82L22.15 13.26C22.15 13.13 22.09 13.06 21.97 13.03L21.39 12.87L22.18 10.85L26.50 10.85L27.29 12.87L26.71 13.03C26.59 13.06 26.52 13.13 26.52 13.26L26.52 13.82L29.40 13.82L29.40 13.26C29.40 13.13 29.33 13.06 29.22 13.03ZM22.55 9.87L24.05 6.02C24.14 5.80 24.22 5.49 24.33 5.07C24.43 5.45 24.53 5.75 24.64 6.01L26.12 9.87ZM30.04 9.09L30.04 10.15L33.49 10.15L33.49 9.09ZM34.62 3.79L34.62 4.38C34.62 4.52 34.69 4.62 34.83 4.65C34.92 4.68 35.18 4.73 35.63 4.82L35.63 12.81L34.83 12.96C34.69 12.99 34.62 13.09 34.62 13.23L34.62 13.82L41.82 13.82L41.82 11.49L41.15 11.49C40.98 11.49 40.87 11.55 40.84 11.72C40.84 11.76 40.81 12.11 40.75 12.73L37.00 12.73L37.00 9.30L40.70 9.30L40.70 8.23L37.00 8.23L37.00 4.90L40.75 4.90C40.81 5.57 40.85 5.94 40.85 5.98C40.88 6.15 40.98 6.22 41.15 6.22L41.82 6.22L41.82 3.79ZM48.41 12.82L48.08 12.36C48.02 12.28 47.95 12.25 47.85 12.25C47.75 12.25 47.66 12.28 47.57 12.36C47.12 12.75 46.61 12.95 46.02 12.95C45.37 12.95 44.88 12.71 44.52 12.25C44.16 11.77 43.96 11.10 43.96 10.26C43.96 9.42 44.13 8.78 44.49 8.30C44.67 8.08 44.90 7.90 45.15 7.78C45.40 7.67 45.67 7.60 45.92 7.60C46.17 7.60 46.42 7.62 46.70 7.66C46.82 7.69 46.98 7.71 47.21 7.78C47.21 7.80 47.22 7.94 47.25 8.25C47.28 8.55 47.29 8.72 47.31 8.78C47.33 8.92 47.40 8.97 47.54 8.97L48.10 8.97L48.10 7.13C47.24 6.79 46.54 6.62 46.00 6.62C44.95 6.62 44.11 6.96 43.51 7.64C42.94 8.32 42.66 9.17 42.66 10.26C42.66 11.38 42.97 12.28 43.57 12.95C44.14 13.59 44.87 13.92 45.78 13.92C46.93 13.92 47.82 13.55 48.41 12.82ZM55.31 12.95C55.23 12.92 54.81 12.84 54.61 12.80L54.61 9.25C54.61 8.86 54.57 8.50 54.46 8.16C54.35 7.83 54.19 7.55 53.98 7.32C53.77 7.10 53.52 6.93 53.21 6.79C52.91 6.65 52.54 6.59 52.15 6.59C51.59 6.59 51.09 6.68 50.64 6.87C50.19 7.07 49.77 7.34 49.38 7.71L49.60 8.11C49.63 8.16 49.69 8.23 49.74 8.27C49.80 8.32 49.88 8.33 49.97 8.33C50.08 8.33 50.18 8.30 50.29 8.22C50.40 8.13 50.54 8.06 50.69 7.97C50.85 7.87 51.02 7.80 51.23 7.71C51.44 7.63 51.69 7.59 52.00 7.59C52.46 7.59 52.81 7.74 53.05 8.02C53.28 8.30 53.41 8.72 53.41 9.28L53.41 9.83C52.60 9.83 51.93 9.88 51.37 10.01C50.81 10.14 50.36 10.32 50.02 10.51C49.69 10.71 49.42 10.96 49.27 11.21C49.11 11.47 49.04 11.75 49.04 12.03C49.04 12.35 49.08 12.63 49.20 12.87C49.31 13.10 49.45 13.30 49.62 13.45C49.78 13.61 50.01 13.71 50.25 13.79C50.48 13.87 50.72 13.92 51.00 13.92C51.28 13.92 51.53 13.90 51.76 13.85C51.98 13.79 52.18 13.72 52.37 13.64C52.57 13.55 52.77 13.44 52.93 13.30C53.10 13.16 53.30 13.01 53.49 12.84L53.63 13.51C53.66 13.62 53.69 13.71 53.77 13.73C53.86 13.76 53.96 13.79 54.07 13.79L54.52 13.79L54.61 13.79L55.52 13.79L55.52 13.19C55.52 13.06 55.44 12.95 55.31 12.92ZM53.38 12.08C53.24 12.22 53.10 12.36 52.96 12.47C52.82 12.59 52.67 12.70 52.50 12.78C52.33 12.87 52.16 12.92 51.98 12.96C51.80 13.01 51.62 13.03 51.39 13.03C51.23 13.03 51.07 13.01 50.93 12.96C50.79 12.92 50.68 12.87 50.57 12.78C50.46 12.70 50.37 12.59 50.32 12.45C50.26 12.31 50.22 12.17 50.22 11.97C50.22 11.77 50.27 11.61 50.39 11.44C50.50 11.27 50.69 11.13 50.95 11.02C51.20 10.91 51.53 10.79 51.93 10.72C52.32 10.65 52.81 10.63 53.38 10.63ZM58.55 8.18L58.46 7.07C58.44 6.94 58.41 6.86 58.35 6.80C58.30 6.75 58.23 6.73 58.09 6.73L57.37 6.73L56.36 6.73L56.36 7.32C56.36 7.46 56.43 7.56 56.57 7.59C56.66 7.62 56.92 7.67 57.37 7.76L57.37 12.81L56.57 12.96C56.43 12.99 56.36 13.09 56.36 13.23L56.36 13.82L59.63 13.82L59.63 13.23C59.63 13.09 59.56 12.99 59.42 12.96C59.00 12.88 58.73 12.84 58.62 12.81L58.62 9.31C59.01 8.33 59.63 7.83 60.44 7.83C60.69 7.83 60.87 7.85 61.01 7.90C61.15 7.94 61.26 7.97 61.35 7.97C61.43 7.97 61.50 7.90 61.53 7.78L61.68 6.85C61.40 6.68 61.08 6.59 60.72 6.59C59.79 6.59 59.08 7.13 58.56 8.18ZM65.30 6.62C64.79 6.62 64.33 6.71 63.91 6.89C63.49 7.07 63.14 7.32 62.86 7.63C62.58 7.94 62.36 8.33 62.20 8.75C62.05 9.17 61.96 9.62 61.96 10.12C61.96 10.74 62.05 11.27 62.22 11.75C62.38 12.22 62.61 12.61 62.92 12.94C63.22 13.26 63.57 13.51 63.99 13.68C64.41 13.85 64.86 13.93 65.35 13.93C65.60 13.93 65.87 13.90 66.12 13.86C66.37 13.82 66.63 13.75 66.88 13.66C67.13 13.58 67.34 13.45 67.56 13.31C67.79 13.17 67.97 13.03 68.12 12.84L67.77 12.38C67.72 12.29 67.65 12.25 67.54 12.25C67.45 12.25 67.37 12.29 67.26 12.36C67.14 12.43 67.00 12.50 66.84 12.59C66.67 12.67 66.47 12.75 66.25 12.82C66.02 12.89 65.74 12.92 65.44 12.92C65.10 12.92 64.82 12.87 64.54 12.75C64.26 12.64 64.04 12.47 63.84 12.25C63.64 12.03 63.48 11.77 63.36 11.44C63.25 11.10 63.20 10.71 63.20 10.26L67.90 10.26C68.01 10.26 68.11 10.22 68.15 10.16C68.19 10.11 68.21 9.97 68.21 9.77C68.21 9.27 68.12 8.82 67.98 8.43C67.84 8.04 67.62 7.70 67.37 7.43C67.12 7.17 66.81 6.97 66.44 6.83C66.08 6.69 65.69 6.62 65.27 6.62ZM65.30 7.55C65.58 7.55 65.84 7.59 66.07 7.69C66.29 7.78 66.49 7.92 66.64 8.09C66.79 8.26 66.89 8.48 66.98 8.72C67.06 8.96 67.10 9.23 67.10 9.51L63.25 9.51C63.34 8.89 63.56 8.40 63.90 8.05C64.23 7.70 64.71 7.53 65.31 7.53Z"></path></g><defs data-v-fde0c5aa=""><linearGradient data-v-fde0c5aa="" gradientTransform="rotate(25)" id="8223f37d-c902-449d-93a1-23481d40a530" x1="0%" y1="0%" x2="100%" y2="0%"><stop data-v-fde0c5aa="" offset="0%" stop-color="#0076DD" stop-opacity="1"></stop><stop data-v-fde0c5aa="" offset="100%" stop-color="#E600E9" stop-opacity="1"></stop></linearGradient></defs><g data-v-fde0c5aa="" id="a5459fb0-d00e-4e9c-80c4-3702e4649150" stroke="none" fill="url(#8223f37d-c902-449d-93a1-23481d40a530)" transform="matrix(1.0804212520669112,0,0,1.0804212520669112,32.653136310241,97.32946396173809)"><style>.st0{fill:none;stroke:#000;stroke-linecap:round;stroke-linejoin:round;stroke-miterlimit:10}</style><path class="st0" d="M41.8 50l-10.8.1-1.8 2.9-1.9-8.4L25.2 66l-1.8-34.5L21 54.6l-1.2-5.8L19 53l-1.2-6.3-1.1 3.3-9.9.1"></path><path class="st0" d="M67.4 50l-10.8.1-1.8 2.9-1.9-8.4L50.8 66 49 31.5l-2.4 23.1-1.2-5.8-.8 4.2-1.2-6.3-1.1 3.3-9.9.1"></path><path class="st0" d="M92.9 50l-10.9.1-1.7 2.9-1.9-8.4L76.2 66l-1.7-34.5-2.4 23.1-1.3-5.8-.7 4.2-1.2-6.3-1.2 3.3-9.8.1"></path></g><defs data-v-fde0c5aa=""><!----></defs><g data-v-fde0c5aa="" id="5ae01d52-4c1b-4a49-969d-a0720dc91d37" fill="#000000" transform="matrix(0.2927558857969351,0,0,0.2927558857969351,145.86326065665082,158.5292537008232)"><path d="M5.11 10.57C2.86 10.57 1.60 8.93 1.60 6.85C1.60 4.76 2.86 3.12 5.11 3.12C6.64 3.12 7.64 3.85 8.12 4.98L9.23 4.98C8.64 3.29 7.13 2.10 5.03 2.10C2.24 2.10 0.55 4.21 0.55 6.85C0.55 9.48 2.24 11.59 5.03 11.59C7.13 11.59 8.64 10.40 9.23 8.71L8.12 8.71C7.64 9.84 6.64 10.57 5.11 10.57ZM21.84 2.10C19.03 2.10 17.14 4.21 17.14 6.85C17.14 9.48 19.03 11.59 21.84 11.59C24.65 11.59 26.54 9.48 26.54 6.85C26.54 4.21 24.65 2.10 21.84 2.10ZM21.84 10.57C19.59 10.57 18.19 8.93 18.19 6.85C18.19 4.76 19.59 3.12 21.84 3.12C24.09 3.12 25.49 4.76 25.49 6.85C25.49 8.93 24.09 10.57 21.84 10.57ZM43.02 2.21L39.76 6.61L36.44 2.21L35.22 2.21L35.22 11.48L36.27 11.48L36.27 3.81L39.76 8.22L43.19 3.81L43.19 11.48L44.24 11.48L44.24 2.21ZM54.56 8.18L57.68 8.18C59.65 8.18 60.87 7.03 60.87 5.19C60.87 3.37 59.65 2.21 57.68 2.21L53.51 2.21L53.51 11.48L54.56 11.48ZM57.61 3.21C59.07 3.21 59.82 3.96 59.82 5.19C59.82 6.44 59.07 7.20 57.61 7.20L54.56 7.20L54.56 3.21ZM75.88 2.21L68.36 2.21L68.36 3.22L71.60 3.22L71.60 11.48L72.65 11.48L72.65 3.22L75.88 3.22ZM91.03 3.22L91.03 2.21L84.21 2.21L84.21 11.48L91.03 11.48L91.03 10.47L85.26 10.47L85.26 7.35L90.41 7.35L90.41 6.33L85.26 6.33L85.26 3.22ZM106.33 3.22L106.33 2.21L99.08 2.21L99.08 3.19L105.04 3.19L98.99 10.49L98.99 11.48L106.33 11.48L106.33 10.50L100.28 10.50ZM125.50 4.65C125.50 4.03 125.86 3.08 127.96 3.08C129.65 3.08 130.44 3.82 130.55 4.75L131.63 4.75C131.54 3.36 130.42 2.10 127.96 2.10C125.64 2.10 124.47 3.15 124.47 4.66C124.47 7.84 130.82 6.69 130.82 8.96C130.82 10.05 129.84 10.60 128.27 10.60C126.66 10.60 125.36 10.05 125.29 8.71L124.19 8.71C124.33 10.37 125.45 11.59 128.20 11.59C130.48 11.59 131.87 10.64 131.87 8.92C131.87 5.68 125.50 6.80 125.50 4.65ZM147.21 2.21L147.21 7.52C147.21 9.67 145.78 10.57 144.31 10.57C142.84 10.57 141.43 9.67 141.43 7.52L141.43 2.21L140.38 2.21L140.38 7.49C140.38 9.95 142.00 11.59 144.31 11.59C146.64 11.59 148.26 9.94 148.26 7.49L148.26 2.21ZM158.47 7.92L161.69 7.92L163.93 11.48L165.17 11.48L162.74 7.74C163.77 7.50 164.98 6.90 164.98 5.11C164.98 3.35 163.76 2.21 161.85 2.21L157.42 2.21L157.42 11.48L158.47 11.48ZM158.47 3.21L161.73 3.21C163.04 3.21 163.93 3.93 163.93 5.11C163.93 6.55 162.67 6.93 161.67 6.93L158.47 6.93ZM183.76 2.21L183.76 11.48L189.87 11.48L189.87 10.47L184.81 10.47L184.81 2.21ZM202.38 2.21L201.07 2.21L197.13 11.48L198.30 11.48L199.43 8.79L204.02 8.79L205.16 11.48L206.32 11.48ZM199.84 7.83L201.73 3.30L203.62 7.83ZM228.38 2.21L224.48 2.21L224.48 11.48L228.38 11.48C230.59 11.48 232.64 9.74 232.64 6.85C232.64 3.95 230.59 2.21 228.38 2.21ZM228.34 10.49L225.53 10.49L225.53 3.21L228.34 3.21C230.31 3.21 231.59 4.86 231.59 6.85C231.59 8.83 230.31 10.49 228.34 10.49ZM242.38 2.21L241.33 2.21L241.33 11.48L242.38 11.48ZM258.34 3.22L258.34 2.21L251.65 2.21L251.65 11.48L252.70 11.48L252.70 7.46L257.73 7.46L257.73 6.44L252.70 6.44L252.70 3.22ZM273.50 3.22L273.50 2.21L266.81 2.21L266.81 11.48L267.86 11.48L267.86 7.46L272.89 7.46L272.89 6.44L267.86 6.44L267.86 3.22ZM288.79 3.22L288.79 2.21L281.97 2.21L281.97 11.48L288.79 11.48L288.79 10.47L283.02 10.47L283.02 7.35L288.18 7.35L288.18 6.33L283.02 6.33L283.02 3.22ZM284.58 1.47L285.43 1.47L286.93 0L285.43 0ZM298.54 7.92L301.76 7.92L304.00 11.48L305.24 11.48L302.81 7.74C303.84 7.50 305.05 6.90 305.05 5.11C305.05 3.35 303.83 2.21 301.92 2.21L297.49 2.21L297.49 11.48L298.54 11.48ZM298.54 3.21L301.80 3.21C303.11 3.21 304.00 3.93 304.00 5.11C304.00 6.55 302.74 6.93 301.74 6.93L298.54 6.93ZM320.67 3.22L320.67 2.21L313.85 2.21L313.85 11.48L320.67 11.48L320.67 10.47L314.90 10.47L314.90 7.35L320.05 7.35L320.05 6.33L314.90 6.33L314.90 3.22ZM336.31 2.21L336.31 10.01L330.58 2.21L329.36 2.21L329.36 11.48L330.41 11.48L330.41 3.65L336.14 11.48L337.36 11.48L337.36 2.21ZM350.60 10.57C348.35 10.57 347.09 8.93 347.09 6.85C347.09 4.76 348.35 3.12 350.60 3.12C352.13 3.12 353.14 3.85 353.61 4.98L354.72 4.98C354.13 3.29 352.62 2.10 350.52 2.10C347.73 2.10 346.04 4.21 346.04 6.85C346.04 9.48 347.73 11.59 350.52 11.59C352.62 11.59 354.13 10.40 354.72 8.71L353.61 8.71C353.14 9.84 352.13 10.57 350.60 10.57ZM370.10 3.22L370.10 2.21L363.29 2.21L363.29 11.48L370.10 11.48L370.10 10.47L364.34 10.47L364.34 7.35L369.49 7.35L369.49 6.33L364.34 6.33L364.34 3.22ZM388.51 10.05L388.51 11.48L389.87 11.48L389.87 10.05ZM389.58 8.92L389.84 2.21L388.54 2.21L388.81 8.92Z"></path></g></svg>